<svg width="247" height="34" viewBox="0 0 247 34" fill="none" xmlns="http://www.w3.org/2000/svg">
<g filter="url(#filter0_d_12_8878)">
<path d="M39.376 26H30.832L29.824 20.576C29.76 20.768 29.52 21.136 29.104 21.68C28.72 22.224 28.272 22.8 27.76 23.408C27.28 24.016 26.8 24.576 26.32 25.088C25.84 25.6 25.488 25.904 25.264 26H4.96C5.024 25.744 5.056 25.632 5.056 25.664V25.52L22.336 3.44C22.432 3.248 22.624 2.992 22.912 2.672C23.2 2.352 23.504 2.048 23.824 1.76C24.176 1.44 24.512 1.168 24.832 0.943999C25.184 0.687999 25.472 0.559999 25.696 0.559999H33.76C34.08 0.559999 34.368 0.735998 34.624 1.088C34.912 1.44 35.152 1.872 35.344 2.384C35.536 2.896 35.696 3.44 35.824 4.016C35.984 4.56 36.112 5.024 36.208 5.408L39.376 26ZM20.08 19.088V19.568H29.824L28.144 8.288L20.08 19.088ZM70.4016 10.16L64.4016 26H57.2496C55.2656 26 53.3296 25.824 51.4416 25.472C49.5536 25.12 47.8576 24.512 46.3536 23.648C44.8496 22.752 43.6336 21.552 42.7056 20.048C41.8096 18.544 41.3616 16.64 41.3616 14.336C41.3616 12.8 41.6976 11.216 42.3696 9.584C43.0416 7.952 43.9536 6.464 45.1056 5.12C46.2576 3.776 47.5856 2.688 49.0896 1.856C50.5936 0.991999 52.1936 0.559999 53.8896 0.559999H73.7136C72.7856 1.776 71.8416 2.928 70.8816 4.016C69.9536 5.072 68.9296 6.08 67.8096 7.04H55.3296C54.8176 7.04 54.3216 7.184 53.8416 7.472C53.3616 7.728 52.9136 8.08 52.4976 8.528C52.1136 8.976 51.7616 9.488 51.4416 10.064C51.1216 10.608 50.8656 11.152 50.6736 11.696C50.4176 12.528 50.2896 13.184 50.2896 13.664C50.2896 14.272 50.4336 14.928 50.7216 15.632C51.0416 16.304 51.4416 16.928 51.9216 17.504C52.4336 18.08 52.9776 18.56 53.5536 18.944C54.1616 19.328 54.7536 19.52 55.3296 19.52H58.1616L59.2656 16.4H53.8416V16.352C53.8736 16.256 54.0656 15.952 54.4176 15.44C54.8016 14.896 55.2496 14.304 55.7616 13.664C56.2736 12.992 56.8016 12.336 57.3456 11.696C57.9216 11.024 58.4336 10.512 58.8816 10.16H70.4016ZM67.3128 26L76.5768 0.559999H97.9848C99.1368 0.559999 100.065 0.799998 100.769 1.28C101.473 1.76 102.001 2.368 102.353 3.104C102.737 3.84 102.977 4.64 103.073 5.504C103.201 6.368 103.265 7.168 103.265 7.904C103.265 9.536 102.865 10.88 102.065 11.936C101.265 12.992 100.257 13.84 99.0408 14.48C97.8568 15.088 96.5288 15.536 95.0568 15.824C93.6168 16.08 92.2568 16.256 90.9768 16.352L100.385 26H90.1128L80.2248 16.88L79.6968 17.264L76.5288 26H67.3128ZM93.9528 8.432V7.904C93.9528 7.648 93.9048 7.44 93.8088 7.28C93.7128 7.088 93.4728 6.992 93.0887 6.992H83.4408L80.7048 14.48L84.9288 10.208H92.6088C93.0888 10.208 93.4248 10 93.6168 9.584C93.8408 9.136 93.9528 8.752 93.9528 8.432ZM100.971 26L110.235 0.559999H119.451L110.187 26H100.971ZM135.769 17.936V17.648C135.769 17.392 135.721 17.136 135.625 16.88C135.529 16.592 135.353 16.448 135.097 16.448H125.497C124.537 16.448 123.673 16.224 122.905 15.776C122.137 15.296 121.465 14.704 120.889 14C120.345 13.264 119.929 12.464 119.641 11.6C119.353 10.736 119.209 9.888 119.209 9.056C119.209 8.288 119.433 7.424 119.881 6.464C120.329 5.472 120.905 4.544 121.609 3.68C122.313 2.784 123.113 2.048 124.009 1.472C124.905 0.863998 125.801 0.559999 126.697 0.559999H151.177C150.441 1.648 149.593 2.736 148.633 3.824C147.705 4.912 146.665 6 145.513 7.088H129.673C129.321 7.088 129.017 7.328 128.761 7.808C128.505 8.288 128.377 8.672 128.377 8.96V9.2C128.377 9.232 128.441 9.312 128.569 9.44C128.697 9.536 128.793 9.616 128.857 9.68C128.985 9.808 129.161 9.936 129.385 10.064C129.641 10.16 129.785 10.208 129.817 10.208H138.937C139.993 10.208 140.889 10.464 141.625 10.976C142.361 11.456 142.953 12.08 143.401 12.848C143.881 13.584 144.217 14.384 144.409 15.248C144.633 16.112 144.745 16.912 144.745 17.648V17.936C144.745 18.768 144.553 19.664 144.169 20.624C143.785 21.552 143.273 22.416 142.633 23.216C142.025 24.016 141.305 24.688 140.473 25.232C139.673 25.744 138.841 26 137.977 26H113.497C113.657 25.68 113.977 25.168 114.457 24.464C114.969 23.76 115.497 23.056 116.041 22.352C116.617 21.616 117.145 20.976 117.625 20.432C118.105 19.856 118.393 19.568 118.489 19.568H134.809C135.289 19.568 135.561 19.424 135.625 19.136C135.721 18.848 135.769 18.544 135.769 18.224V17.936ZM153.921 0.559999H181.281C181.057 1.008 180.673 1.6 180.129 2.336C179.617 3.04 179.057 3.744 178.449 4.448C177.873 5.152 177.297 5.76 176.721 6.272C176.177 6.784 175.777 7.04 175.521 7.04H160.737L158.001 14.576L162.561 10.16H173.649L166.785 16.64H157.233L156.177 19.52H174.561C174.529 19.584 174.449 19.728 174.321 19.952C174.193 20.144 174.065 20.352 173.937 20.576C173.809 20.8 173.681 21.008 173.553 21.2C173.425 21.392 173.345 21.504 173.312 21.536C173.025 21.92 172.625 22.368 172.113 22.88C171.633 23.392 171.153 23.888 170.673 24.368C170.193 24.816 169.761 25.2 169.377 25.52C169.025 25.84 168.833 26 168.801 26H144.657L153.921 0.559999ZM174.657 26L183.921 0.559999H195.537L198.273 14.864L203.505 0.559999H212.625L203.361 26H191.745L189.057 11.696L183.873 26H174.657ZM205.823 26L225.647 7.04H212.735V6.992C212.767 6.864 212.991 6.512 213.407 5.936C213.855 5.36 214.367 4.72 214.943 4.016C215.551 3.312 216.159 2.64 216.767 2C217.407 1.328 217.951 0.847999 218.399 0.559999H242.447L222.623 19.52H235.535C235.311 19.968 234.927 20.56 234.383 21.296C233.871 22 233.311 22.704 232.703 23.408C232.127 24.112 231.551 24.72 230.975 25.232C230.431 25.744 230.031 26 229.775 26H205.823Z" fill="#602076"/>
</g>
<defs>
<filter id="filter0_d_12_8878" x="0.959961" y="0.559998" width="245.487" height="33.44" filterUnits="userSpaceOnUse" color-interpolation-filters="sRGB">
<feFlood flood-opacity="0" result="BackgroundImageFix"/>
<feColorMatrix in="SourceAlpha" type="matrix" values="0 0 0 0 0 0 0 0 0 0 0 0 0 0 0 0 0 0 127 0" result="hardAlpha"/>
<feOffset dy="4"/>
<feGaussianBlur stdDeviation="2"/>
<feComposite in2="hardAlpha" operator="out"/>
<feColorMatrix type="matrix" values="0 0 0 0 0 0 0 0 0 0 0 0 0 0 0 0 0 0 0.25 0"/>
<feBlend mode="normal" in2="BackgroundImageFix" result="effect1_dropShadow_12_8878"/>
<feBlend mode="normal" in="SourceGraphic" in2="effect1_dropShadow_12_8878" result="shape"/>
</filter>
</defs>
</svg>
