<svg width="27" height="26" viewBox="0 0 27 26" fill="none" xmlns="http://www.w3.org/2000/svg">
<rect x="1" y="0.5" width="25" height="25" rx="5" fill="#0387FF"/>
<path d="M2.37228 0.5H24.6232C25.3795 0.5 25.9955 1.38541 25.9955 2.47264V23.5206C25.9955 24.6078 25.3795 25.4933 24.6232 25.4933H2.37228C1.61594 25.4933 1 24.6013 1 23.5206V2.47264C1 1.38541 1.61594 0.5 2.37228 0.5Z" fill="#CC0001"/>
<path d="M1.01807 23.8463H25.9818C25.8731 24.7837 25.307 25.4999 24.6277 25.4999H2.37223C1.69289 25.4999 1.12676 24.7837 1.01807 23.8463Z" fill="white"/>
<path d="M1 20.2397H26V22.0431H1V20.2397Z" fill="white"/>
<path d="M1 16.6328H26V18.4362H1V16.6328Z" fill="white"/>
<path d="M1 13.0198H26V14.8232H1V13.0198Z" fill="white"/>
<path d="M1 9.41296H26V11.2163H1V9.41296Z" fill="white"/>
<path d="M1 5.8064H26V7.60976H1V5.8064Z" fill="white"/>
<path d="M1.01359 2.19922H25.9864C25.9955 2.29036 26 2.38151 26 2.47265V4.00259H1V2.47265C1 2.38151 1.00453 2.29036 1.01359 2.19922Z" fill="white"/>
<path d="M17.567 0.5V14.8228H1V2.47264C1 1.38541 1.61594 0.5 2.37228 0.5H17.567Z" fill="#010066"/>
<path d="M7.22737 2.19922C5.14404 2.19922 3.4502 4.62107 3.4502 7.60932C3.4502 10.5976 5.14404 13.0194 7.22737 13.0194C7.97918 13.0194 8.68117 12.7004 9.26994 12.1601C8.92574 12.3293 8.55889 12.4205 8.17393 12.4205C6.3261 12.4205 4.82248 10.2721 4.82248 7.62235C4.82248 4.97263 6.32157 2.82421 8.17393 2.82421C8.58154 2.82421 8.97556 2.92838 9.33788 3.12369C8.73552 2.53776 8.01088 2.19922 7.22737 2.19922Z" fill="#FFCC00"/>
<path d="M13.4909 10.4283L11.9012 9.23692L12.3722 11.6783L11.3079 9.63406L10.9773 12.121L10.6467 9.63406L9.58239 11.6718L10.0579 9.23041L8.46373 10.4153L9.6458 8.50776L7.84326 8.60542L9.50087 7.60933L7.84326 6.60023L9.65033 6.70439L8.46826 4.79035L10.0579 5.98825L9.59145 3.54687L10.6512 5.58461L10.9864 3.09766L11.3125 5.59112L12.3813 3.54687L11.9058 5.98825L13.5 4.80337L12.3134 6.7109L14.1159 6.61325L12.4583 7.61584L14.1159 8.61844L12.3134 8.51427L13.4909 10.4283Z" fill="#FFCC00"/>
<path d="M2.37228 0.5H24.6232C25.3795 0.5 25.9955 1.38541 25.9955 2.47264V23.5206C25.9955 24.6078 25.3795 25.4933 24.6232 25.4933H2.37228C1.61594 25.4933 1 24.6013 1 23.5206V2.47264C1 1.38541 1.61594 0.5 2.37228 0.5Z" stroke="#CCCCCC" stroke-width="0.1199" stroke-miterlimit="2.6131"/>
</svg>
