<svg width="27" height="26" viewBox="0 0 27 26" fill="none" xmlns="http://www.w3.org/2000/svg">
<path d="M8.5 19.5C9.84026 19.5 10.9274 18.4368 10.9274 17.125H6.07257C6.07257 18.4368 7.15974 19.5 8.5 19.5ZM16.6733 13.9444C15.9401 13.174 14.5684 12.015 14.5684 8.21875C14.5684 5.33535 12.5011 3.02715 9.71352 2.46086V1.6875C9.71352 1.03178 9.17013 0.5 8.5 0.5C7.82987 0.5 7.28648 1.03178 7.28648 1.6875V2.46086C4.49894 3.02715 2.43163 5.33535 2.43163 8.21875C2.43163 12.015 1.05987 13.174 0.326744 13.9444C0.0990661 14.1837 -0.00187108 14.4698 2.62356e-05 14.75C0.00420033 15.3586 0.492569 15.9375 1.2181 15.9375H15.7819C16.5074 15.9375 16.9962 15.3586 17 14.75C17.0019 14.4698 16.9009 14.1833 16.6733 13.9444Z" fill="#5E057B"/>
<circle cx="20" cy="16.5" r="7" fill="#E74C3C"/>
<path d="M18.353 18.795C19.057 18.1863 19.6107 17.6877 20.014 17.299C20.4247 16.903 20.7657 16.4923 21.037 16.067C21.3083 15.6417 21.444 15.2163 21.444 14.791C21.444 14.351 21.3377 14.0063 21.125 13.757C20.9197 13.5077 20.5933 13.383 20.146 13.383C19.7133 13.383 19.376 13.5223 19.134 13.801C18.8993 14.0723 18.7747 14.439 18.76 14.901H17.55C17.572 14.065 17.8213 13.427 18.298 12.987C18.782 12.5397 19.3943 12.316 20.135 12.316C20.9343 12.316 21.5577 12.536 22.005 12.976C22.4597 13.416 22.687 14.0027 22.687 14.736C22.687 15.264 22.5513 15.7737 22.28 16.265C22.016 16.749 21.697 17.1853 21.323 17.574C20.9563 17.9553 20.487 18.399 19.915 18.905L19.42 19.345H22.907V20.39H17.561V19.477L18.353 18.795Z" fill="white"/>
</svg>
