<svg width="25" height="26" viewBox="0 0 25 26" fill="none" xmlns="http://www.w3.org/2000/svg">
<rect y="0.5" width="25" height="25" rx="5" fill="#5E057B"/>
<path d="M12.8125 14.2507C15.8701 14.2507 18.3482 11.732 18.3482 8.62533C18.3482 5.51865 15.8701 3 12.8125 3C9.75488 3 7.27679 5.51865 7.27679 8.62533C7.27679 11.732 9.75488 14.2507 12.8125 14.2507ZM15.0052 16.3602H10.6198C6.48146 16.3602 3.125 19.7705 3.125 23.9763C3.125 24.8175 3.79621 25.5 4.62397 25.5H21.0019C21.8297 25.5013 22.5 24.8201 22.5 23.9763C22.5 19.7705 19.144 16.3602 15.0052 16.3602Z" fill="#E8A6FD"/>
</svg>
