<svg width="203" height="126" viewBox="0 0 203 126" fill="none" xmlns="http://www.w3.org/2000/svg">
<mask id="mask0_19_9001" style="mask-type:alpha" maskUnits="userSpaceOnUse" x="0" y="0" width="203" height="109">
<rect x="0.5" width="202.114" height="108.83" fill="#D9D9D9"/>
<rect x="1" y="0.5" width="201.114" height="107.83" stroke="white" stroke-opacity="0.41"/>
</mask>
<g mask="url(#mask0_19_9001)">
<g filter="url(#filter0_d_19_9001)">
<mask id="path-3-inside-1_19_9001" fill="white">
<path d="M8.94702 105.215C4.85619 105.215 1.51207 101.894 1.80665 97.814C3.54237 73.7727 13.6907 51.0638 30.5376 33.9027C49.1045 14.9895 74.2866 4.36418 100.544 4.36418C126.802 4.36418 151.984 14.9895 170.551 33.9027C187.398 51.0637 197.546 73.7727 199.282 97.814C199.576 101.894 196.232 105.215 192.141 105.215C188.05 105.215 184.767 101.892 184.421 97.816C182.718 77.7822 174.143 58.9032 160.076 44.5733C144.287 28.4901 122.873 19.4547 100.544 19.4547C78.2156 19.4547 56.8015 28.4901 41.0128 44.5733C26.9453 58.9032 18.3702 77.7822 16.6678 97.816C16.3215 101.892 13.0379 105.215 8.94702 105.215Z"/>
</mask>
<path d="M8.94702 105.215C4.85619 105.215 1.51207 101.894 1.80665 97.814C3.54237 73.7727 13.6907 51.0638 30.5376 33.9027C49.1045 14.9895 74.2866 4.36418 100.544 4.36418C126.802 4.36418 151.984 14.9895 170.551 33.9027C187.398 51.0637 197.546 73.7727 199.282 97.814C199.576 101.894 196.232 105.215 192.141 105.215C188.05 105.215 184.767 101.892 184.421 97.816C182.718 77.7822 174.143 58.9032 160.076 44.5733C144.287 28.4901 122.873 19.4547 100.544 19.4547C78.2156 19.4547 56.8015 28.4901 41.0128 44.5733C26.9453 58.9032 18.3702 77.7822 16.6678 97.816C16.3215 101.892 13.0379 105.215 8.94702 105.215Z" stroke="#DADADA" stroke-opacity="0.41" stroke-width="60" stroke-linecap="round" stroke-linejoin="round" shape-rendering="crispEdges" mask="url(#path-3-inside-1_19_9001)"/>
</g>
<g filter="url(#filter1_d_19_9001)">
<mask id="path-4-inside-2_19_9001" fill="white">
<path d="M7.93673 108.345C3.84452 108.439 0.423718 105.192 0.628064 101.104C1.696 79.7386 9.4147 59.1992 22.7626 42.5175C37.6481 23.9143 58.5586 11.3283 81.7367 7.02122C104.915 2.71412 128.841 6.9682 149.216 19.0191C167.504 29.8351 181.854 46.2955 190.256 65.9244C191.856 69.6619 189.819 73.871 185.992 75.2425C182.101 76.6366 177.85 74.5678 176.169 70.7929C168.961 54.6142 156.966 41.0525 141.778 32.0693C124.451 21.8216 104.105 18.2041 84.3953 21.8668C64.6854 25.5294 46.9038 36.2321 34.2457 52.0517C23.1232 65.952 16.5971 83.0023 15.4848 100.777C15.2294 104.857 12.0241 108.251 7.93673 108.345Z"/>
</mask>
<path d="M7.93673 108.345C3.84452 108.439 0.423718 105.192 0.628064 101.104C1.696 79.7386 9.4147 59.1992 22.7626 42.5175C37.6481 23.9143 58.5586 11.3283 81.7367 7.02122C104.915 2.71412 128.841 6.9682 149.216 19.0191C167.504 29.8351 181.854 46.2955 190.256 65.9244C191.856 69.6619 189.819 73.871 185.992 75.2425C182.101 76.6366 177.85 74.5678 176.169 70.7929C168.961 54.6142 156.966 41.0525 141.778 32.0693C124.451 21.8216 104.105 18.2041 84.3953 21.8668C64.6854 25.5294 46.9038 36.2321 34.2457 52.0517C23.1232 65.952 16.5971 83.0023 15.4848 100.777C15.2294 104.857 12.0241 108.251 7.93673 108.345Z" stroke="#4F83E3" stroke-width="60" stroke-linecap="round" stroke-linejoin="round" shape-rendering="crispEdges" mask="url(#path-4-inside-2_19_9001)"/>
</g>
</g>
<g filter="url(#filter2_d_19_9001)">
<circle cx="185.813" cy="67.813" r="12.813" fill="white"/>
<circle cx="185.813" cy="67.813" r="10.313" stroke="#689AF6" stroke-width="5"/>
</g>
<path d="M71.4258 58.1528C72.922 58.1528 74.3614 58.4037 75.7439 58.9056C77.136 59.4075 78.3765 60.2077 79.4655 61.3062C80.564 62.4047 81.4305 63.863 82.065 65.6812C82.7089 67.4899 83.0356 69.7105 83.0451 72.3431C83.0451 74.8147 82.7657 77.0212 82.207 78.9624C81.6578 80.8943 80.867 82.5373 79.8349 83.8914C78.8027 85.2456 77.5574 86.2778 76.0991 86.988C74.6407 87.6888 73.0119 88.0391 71.2127 88.0391C69.2714 88.0391 67.5574 87.6651 66.0706 86.917C64.5839 86.1594 63.386 85.1319 62.4769 83.8346C61.5773 82.5278 61.0328 81.06 60.8434 79.4312H66.9087C67.1455 80.4918 67.6426 81.3157 68.4002 81.9028C69.1578 82.4804 70.0953 82.7693 71.2127 82.7693C73.1066 82.7693 74.546 81.9454 75.5309 80.2977C76.5157 78.6405 77.0129 76.3725 77.0224 73.4937H76.8235C76.3879 74.346 75.8008 75.0799 75.0621 75.6954C74.3235 76.3015 73.4759 76.7702 72.5195 77.1016C71.5725 77.4331 70.564 77.5988 69.4939 77.5988C67.7799 77.5988 66.2506 77.1963 64.9059 76.3914C63.5612 75.5865 62.5006 74.4785 61.7241 73.0676C60.9475 71.6566 60.5593 70.0467 60.5593 68.238C60.5498 66.2873 60.9996 64.5496 61.9087 63.0249C62.8178 61.5003 64.0867 60.3071 65.7155 59.4454C67.3538 58.5742 69.2572 58.1433 71.4258 58.1528ZM71.4684 62.9823C70.5119 62.9823 69.6597 63.2096 68.9116 63.6641C68.1729 64.1187 67.5858 64.7295 67.1502 65.4965C66.7241 66.2636 66.5157 67.1206 66.5252 68.0676C66.5252 69.024 66.7335 69.8857 67.1502 70.6528C67.5763 71.4104 68.154 72.0164 68.8831 72.471C69.6218 72.916 70.4646 73.1386 71.4116 73.1386C72.1218 73.1386 72.7799 73.006 73.386 72.7408C73.992 72.4757 74.5176 72.1111 74.9627 71.6471C75.4172 71.1736 75.7724 70.6291 76.028 70.0136C76.2837 69.398 76.4116 68.7446 76.4116 68.0533C76.4021 67.1348 76.1843 66.292 75.7581 65.5249C75.332 64.7579 74.7449 64.1424 73.9968 63.6783C73.2487 63.2143 72.4059 62.9823 71.4684 62.9823ZM87.3064 87.6414V83.2096L97.6616 73.6215C98.5422 72.7693 99.2809 72.0022 99.8775 71.3204C100.484 70.6386 100.943 69.971 101.255 69.3176C101.568 68.6547 101.724 67.9397 101.724 67.1727C101.724 66.3204 101.53 65.5865 101.142 64.971C100.753 64.346 100.223 63.8677 99.5508 63.5363C98.8784 63.1954 98.1161 63.0249 97.2638 63.0249C96.3737 63.0249 95.5972 63.2049 94.9343 63.5647C94.2714 63.9246 93.76 64.4407 93.4002 65.113C93.0403 65.7854 92.8604 66.5855 92.8604 67.5136H87.0224C87.0224 65.6102 87.4532 63.9577 88.315 62.5562C89.1767 61.1547 90.3841 60.0704 91.9371 59.3033C93.4902 58.5363 95.2799 58.1528 97.3064 58.1528C99.3898 58.1528 101.203 58.5221 102.747 59.2607C104.3 59.9899 105.507 61.0032 106.369 62.3005C107.231 63.5979 107.662 65.0846 107.662 66.7607C107.662 67.8592 107.444 68.9435 107.008 70.0136C106.582 71.0837 105.82 72.2721 104.721 73.5789C103.623 74.8763 102.074 76.434 100.076 78.2522L95.8292 82.4141V82.613H108.045V87.6414H87.3064ZM128.425 82.1869V80.6528C128.425 79.488 128.671 78.4179 129.164 77.4426C129.666 76.4577 130.39 75.6717 131.337 75.0846C132.293 74.488 133.458 74.1897 134.831 74.1897C136.223 74.1897 137.393 74.4833 138.34 75.0704C139.296 75.6575 140.016 76.4435 140.499 77.4283C140.991 78.4037 141.238 79.4785 141.238 80.6528V82.1869C141.238 83.3516 140.991 84.4265 140.499 85.4113C140.006 86.3867 139.282 87.1679 138.326 87.7551C137.369 88.3516 136.204 88.6499 134.831 88.6499C133.439 88.6499 132.27 88.3516 131.323 87.7551C130.376 87.1679 129.656 86.3867 129.164 85.4113C128.671 84.4265 128.425 83.3516 128.425 82.1869ZM132.559 80.6528V82.1869C132.559 82.8592 132.72 83.4937 133.042 84.0903C133.373 84.6869 133.97 84.9852 134.831 84.9852C135.693 84.9852 136.28 84.6916 136.593 84.1045C136.915 83.5174 137.076 82.8782 137.076 82.1869V80.6528C137.076 79.9615 136.924 79.3176 136.621 78.721C136.318 78.1244 135.721 77.8261 134.831 77.8261C133.979 77.8261 133.387 78.1244 133.056 78.721C132.724 79.3176 132.559 79.9615 132.559 80.6528ZM113.496 65.5391V64.0051C113.496 62.8308 113.747 61.756 114.249 60.7806C114.751 59.7958 115.475 59.0098 116.422 58.4227C117.379 57.8355 118.534 57.542 119.888 57.542C121.29 57.542 122.464 57.8355 123.411 58.4227C124.358 59.0098 125.078 59.7958 125.57 60.7806C126.062 61.756 126.309 62.8308 126.309 64.0051V65.5391C126.309 66.7134 126.058 67.7882 125.556 68.7636C125.063 69.739 124.339 70.5202 123.382 71.1073C122.435 71.685 121.271 71.9738 119.888 71.9738C118.506 71.9738 117.336 71.6802 116.38 71.0931C115.433 70.4965 114.713 69.7153 114.221 68.7494C113.738 67.774 113.496 66.7039 113.496 65.5391ZM117.658 64.0051V65.5391C117.658 66.2304 117.819 66.8696 118.141 67.4568C118.472 68.0439 119.055 68.3374 119.888 68.3374C120.759 68.3374 121.351 68.0439 121.664 67.4568C121.986 66.8696 122.147 66.2304 122.147 65.5391V64.0051C122.147 63.3138 121.995 62.6698 121.692 62.0732C121.389 61.4766 120.788 61.1783 119.888 61.1783C119.045 61.1783 118.463 61.4814 118.141 62.0874C117.819 62.6935 117.658 63.3327 117.658 64.0051ZM115.371 87.6414L135.371 58.5505H139.093L119.093 87.6414H115.371Z" fill="#4F83E3"/>
<path d="M74.2394 116.453L70.6599 103.362H72.2707L75.0065 114.024H75.1343L77.9213 103.362H79.711L82.498 114.024H82.6258L85.3616 103.362H86.9724L83.3928 116.453H81.7565L78.8673 106.021H78.765L75.8758 116.453H74.2394ZM91.9454 116.657C90.9994 116.657 90.1833 116.449 89.4972 116.031C88.8154 115.609 88.2892 115.021 87.9184 114.267C87.5519 113.508 87.3687 112.626 87.3687 111.62C87.3687 110.615 87.5519 109.728 87.9184 108.961C88.2892 108.19 88.8048 107.589 89.4653 107.159C90.1301 106.724 90.9056 106.507 91.792 106.507C92.3034 106.507 92.8083 106.592 93.3069 106.762C93.8055 106.933 94.2593 107.21 94.6684 107.593C95.0775 107.973 95.4035 108.476 95.6464 109.102C95.8893 109.728 96.0107 110.5 96.0107 111.416V112.055H88.4426V110.751H94.4767C94.4767 110.197 94.3659 109.703 94.1443 109.268C93.9269 108.834 93.6159 108.49 93.211 108.239C92.8105 107.988 92.3374 107.862 91.792 107.862C91.1911 107.862 90.6713 108.011 90.2323 108.309C89.7977 108.603 89.4632 108.987 89.2288 109.46C88.9944 109.933 88.8772 110.44 88.8772 110.981V111.851C88.8772 112.592 89.0051 113.221 89.2607 113.736C89.5207 114.248 89.8808 114.637 90.341 114.906C90.8012 115.17 91.336 115.302 91.9454 115.302C92.3417 115.302 92.6997 115.247 93.0193 115.136C93.3431 115.021 93.6222 114.851 93.8566 114.625C94.091 114.395 94.2721 114.109 94.3999 113.768L95.8573 114.177C95.7039 114.672 95.4461 115.106 95.0839 115.481C94.7217 115.852 94.2742 116.142 93.7416 116.351C93.2089 116.555 92.6102 116.657 91.9454 116.657ZM102.422 116.657C101.476 116.657 100.66 116.449 99.9738 116.031C99.292 115.609 98.7657 115.021 98.395 114.267C98.0285 113.508 97.8453 112.626 97.8453 111.62C97.8453 110.615 98.0285 109.728 98.395 108.961C98.7657 108.19 99.2813 107.589 99.9419 107.159C100.607 106.724 101.382 106.507 102.269 106.507C102.78 106.507 103.285 106.592 103.783 106.762C104.282 106.933 104.736 107.21 105.145 107.593C105.554 107.973 105.88 108.476 106.123 109.102C106.366 109.728 106.487 110.5 106.487 111.416V112.055H98.9191V110.751H104.953C104.953 110.197 104.842 109.703 104.621 109.268C104.403 108.834 104.092 108.49 103.688 108.239C103.287 107.988 102.814 107.862 102.269 107.862C101.668 107.862 101.148 108.011 100.709 108.309C100.274 108.603 99.9397 108.987 99.7053 109.46C99.471 109.933 99.3538 110.44 99.3538 110.981V111.851C99.3538 112.592 99.4816 113.221 99.7373 113.736C99.9972 114.248 100.357 114.637 100.818 114.906C101.278 115.17 101.813 115.302 102.422 115.302C102.818 115.302 103.176 115.247 103.496 115.136C103.82 115.021 104.099 114.851 104.333 114.625C104.568 114.395 104.749 114.109 104.877 113.768L106.334 114.177C106.18 114.672 105.923 115.106 105.56 115.481C105.198 115.852 104.751 116.142 104.218 116.351C103.685 116.555 103.087 116.657 102.422 116.657ZM110.188 112.873L110.163 111.007H110.47L114.765 106.635H116.631L112.055 111.262H111.927L110.188 112.873ZM108.782 116.453V103.362H110.291V116.453H108.782ZM115.021 116.453L111.185 111.595L112.259 110.547L116.938 116.453H115.021ZM120.082 103.362V116.453H118.573V103.362H120.082ZM123.816 120.135C123.56 120.135 123.332 120.113 123.132 120.071C122.932 120.032 122.793 119.994 122.717 119.956L123.1 118.626C123.467 118.72 123.791 118.754 124.072 118.728C124.353 118.703 124.602 118.577 124.82 118.351C125.041 118.13 125.244 117.77 125.427 117.271L125.708 116.504L122.078 106.635H123.714L126.424 114.459H126.526L129.237 106.635H130.873L126.705 117.885C126.518 118.392 126.286 118.811 126.009 119.144C125.732 119.481 125.41 119.73 125.043 119.892C124.681 120.054 124.272 120.135 123.816 120.135Z" fill="#4F83E3"/>
<defs>
<filter id="filter0_d_19_9001" x="-2.21143" y="4.36417" width="205.511" height="108.851" filterUnits="userSpaceOnUse" color-interpolation-filters="sRGB">
<feFlood flood-opacity="0" result="BackgroundImageFix"/>
<feColorMatrix in="SourceAlpha" type="matrix" values="0 0 0 0 0 0 0 0 0 0 0 0 0 0 0 0 0 0 127 0" result="hardAlpha"/>
<feOffset dy="4"/>
<feGaussianBlur stdDeviation="2"/>
<feComposite in2="hardAlpha" operator="out"/>
<feColorMatrix type="matrix" values="0 0 0 0 0 0 0 0 0 0 0 0 0 0 0 0 0 0 0.25 0"/>
<feBlend mode="normal" in2="BackgroundImageFix" result="effect1_dropShadow_19_9001"/>
<feBlend mode="normal" in="SourceGraphic" in2="effect1_dropShadow_19_9001" result="shape"/>
</filter>
<filter id="filter1_d_19_9001" x="-3.38062" y="5.38367" width="198.186" height="110.963" filterUnits="userSpaceOnUse" color-interpolation-filters="sRGB">
<feFlood flood-opacity="0" result="BackgroundImageFix"/>
<feColorMatrix in="SourceAlpha" type="matrix" values="0 0 0 0 0 0 0 0 0 0 0 0 0 0 0 0 0 0 127 0" result="hardAlpha"/>
<feOffset dy="4"/>
<feGaussianBlur stdDeviation="2"/>
<feComposite in2="hardAlpha" operator="out"/>
<feColorMatrix type="matrix" values="0 0 0 0 0 0 0 0 0 0 0 0 0 0 0 0 0 0 0.25 0"/>
<feBlend mode="normal" in2="BackgroundImageFix" result="effect1_dropShadow_19_9001"/>
<feBlend mode="normal" in="SourceGraphic" in2="effect1_dropShadow_19_9001" result="shape"/>
</filter>
<filter id="filter2_d_19_9001" x="169" y="55" width="33.626" height="33.6259" filterUnits="userSpaceOnUse" color-interpolation-filters="sRGB">
<feFlood flood-opacity="0" result="BackgroundImageFix"/>
<feColorMatrix in="SourceAlpha" type="matrix" values="0 0 0 0 0 0 0 0 0 0 0 0 0 0 0 0 0 0 127 0" result="hardAlpha"/>
<feOffset dy="4"/>
<feGaussianBlur stdDeviation="2"/>
<feComposite in2="hardAlpha" operator="out"/>
<feColorMatrix type="matrix" values="0 0 0 0 0 0 0 0 0 0 0 0 0 0 0 0 0 0 0.25 0"/>
<feBlend mode="normal" in2="BackgroundImageFix" result="effect1_dropShadow_19_9001"/>
<feBlend mode="normal" in="SourceGraphic" in2="effect1_dropShadow_19_9001" result="shape"/>
</filter>
</defs>
</svg>
