<svg width="16" height="12" viewBox="0 0 16 12" fill="none" xmlns="http://www.w3.org/2000/svg">
<path d="M7.78787 3.11312L2.66688 7.18098V11.5714C2.66688 11.6851 2.7137 11.7941 2.79704 11.8745C2.88038 11.9548 2.99342 12 3.11129 12L6.22382 11.9922C6.3413 11.9917 6.45377 11.9463 6.53663 11.8659C6.6195 11.7856 6.66601 11.6769 6.66601 11.5636V8.99967C6.66601 8.88599 6.71283 8.77697 6.79618 8.69659C6.87952 8.6162 6.99256 8.57105 7.11042 8.57105H8.88806C9.00593 8.57105 9.11897 8.6162 9.20231 8.69659C9.28565 8.77697 9.33247 8.88599 9.33247 8.99967V11.5617C9.33229 11.6181 9.34365 11.674 9.3659 11.7262C9.38815 11.7783 9.42086 11.8257 9.46215 11.8657C9.50343 11.9056 9.55248 11.9373 9.60649 11.9589C9.6605 11.9806 9.71841 11.9917 9.77688 11.9917L12.8883 12C13.0062 12 13.1192 11.9548 13.2026 11.8745C13.2859 11.7941 13.3327 11.6851 13.3327 11.5714V7.17803L8.21284 3.11312C8.15265 3.06632 8.07766 3.0408 8.00035 3.0408C7.92304 3.0408 7.84806 3.06632 7.78787 3.11312ZM15.877 5.87798L13.5549 4.03197V0.321464C13.5549 0.236207 13.5198 0.154441 13.4573 0.0941548C13.3948 0.0338685 13.31 0 13.2216 0H11.6662C11.5778 0 11.493 0.0338685 11.4305 0.0941548C11.368 0.154441 11.3329 0.236207 11.3329 0.321464V2.26659L8.84612 0.293336C8.60748 0.103935 8.30802 0.000378617 7.99897 0.000378617C7.68991 0.000378617 7.39045 0.103935 7.15181 0.293336L0.120963 5.87798C0.0872117 5.90488 0.0592882 5.93794 0.0387875 5.97525C0.0182869 6.01257 0.00561089 6.05342 0.00148382 6.09546C-0.00264326 6.1375 0.00185948 6.17992 0.0147348 6.22028C0.02761 6.26065 0.0486055 6.29817 0.0765215 6.33071L0.7848 7.16116C0.81264 7.19381 0.846883 7.22084 0.88557 7.24071C0.924256 7.26058 0.966625 7.27289 1.01025 7.27695C1.05388 7.281 1.09791 7.27672 1.13982 7.26434C1.18173 7.25197 1.22069 7.23174 1.25449 7.20482L7.78787 2.01478C7.84806 1.96799 7.92304 1.94247 8.00035 1.94247C8.07766 1.94247 8.15265 1.96799 8.21284 2.01478L14.7465 7.20482C14.7802 7.23175 14.8191 7.252 14.861 7.26441C14.9028 7.27683 14.9468 7.28117 14.9904 7.27719C15.034 7.27321 15.0764 7.26099 15.115 7.24122C15.1537 7.22144 15.188 7.19451 15.2159 7.16196L15.9242 6.33151C15.9521 6.29879 15.973 6.26107 15.9857 6.22053C15.9984 6.17999 16.0027 6.13742 15.9983 6.09528C15.9939 6.05313 15.981 6.01224 15.9601 5.97495C15.9393 5.93765 15.911 5.9047 15.877 5.87798Z" fill="white"/>
</svg>
