<svg width="12" height="14" viewBox="0 0 12 14" fill="none" xmlns="http://www.w3.org/2000/svg">
<path d="M2.57143 0C1.15179 0 0 1.17578 0 2.625V11.375C0 12.8242 1.15179 14 2.57143 14H10.2857H11.1429C11.617 14 12 13.609 12 13.125C12 12.641 11.617 12.25 11.1429 12.25V10.5C11.617 10.5 12 10.109 12 9.625V0.875C12 0.391016 11.617 0 11.1429 0H10.2857H2.57143ZM2.57143 10.5H9.42857V12.25H2.57143C2.09732 12.25 1.71429 11.859 1.71429 11.375C1.71429 10.891 2.09732 10.5 2.57143 10.5ZM3.42857 3.9375C3.42857 3.69688 3.62143 3.5 3.85714 3.5H9C9.23571 3.5 9.42857 3.69688 9.42857 3.9375C9.42857 4.17812 9.23571 4.375 9 4.375H3.85714C3.62143 4.375 3.42857 4.17812 3.42857 3.9375ZM3.85714 5.25H9C9.23571 5.25 9.42857 5.44688 9.42857 5.6875C9.42857 5.92812 9.23571 6.125 9 6.125H3.85714C3.62143 6.125 3.42857 5.92812 3.42857 5.6875C3.42857 5.44688 3.62143 5.25 3.85714 5.25Z" fill="#A09BAB"/>
</svg>
