<svg width="17" height="18" viewBox="0 0 17 18" fill="none" xmlns="http://www.w3.org/2000/svg">
<path d="M6.78316 0.667182C3.48269 1.31133 0.823052 3.9643 0.172255 7.25479C-1.05629 13.4639 4.54521 18.0925 8.76543 17.4383C10.1334 17.2258 10.8041 15.6254 10.1766 14.3936C9.40959 12.8861 10.5053 11.1263 12.1987 11.1263H14.8451C16.0338 11.1263 16.9967 10.1435 17 8.95813C16.9834 3.72524 12.222 -0.392015 6.78316 0.667182ZM3.18717 11.1263C2.59946 11.1263 2.12465 10.6515 2.12465 10.0638C2.12465 9.47611 2.59946 9.0013 3.18717 9.0013C3.77488 9.0013 4.2497 9.47611 4.2497 10.0638C4.2497 10.6515 3.77488 11.1263 3.18717 11.1263ZM4.2497 6.87627C3.66199 6.87627 3.18717 6.40145 3.18717 5.81375C3.18717 5.22604 3.66199 4.75123 4.2497 4.75123C4.83741 4.75123 5.31222 5.22604 5.31222 5.81375C5.31222 6.40145 4.83741 6.87627 4.2497 6.87627ZM8.4998 4.75123C7.91209 4.75123 7.43727 4.27642 7.43727 3.68871C7.43727 3.10101 7.91209 2.6262 8.4998 2.6262C9.08751 2.6262 9.56232 3.10101 9.56232 3.68871C9.56232 4.27642 9.08751 4.75123 8.4998 4.75123ZM12.7499 6.87627C12.1622 6.87627 11.6874 6.40145 11.6874 5.81375C11.6874 5.22604 12.1622 4.75123 12.7499 4.75123C13.3376 4.75123 13.8124 5.22604 13.8124 5.81375C13.8124 6.40145 13.3376 6.87627 12.7499 6.87627Z" fill="#5E057B"/>
</svg>
